. 
  
http://www.torrenting.com/        :     Greatest Movie Tracker on The Net!!!
 
http://www.Torrenting.com          :     Once & For all ;)


               www . Torrenting . Com 

(((((((((((((= Enjoy No RAR releases =))))))))))))))))))))


...................................NFO:....................................

.[IMG]http://img13.imageshack.us/img13/2076/1308820471.jpg[/IMG]


[color=blue][size=5][b]Girl.Walks.Into.A.Bar.2011.HDrip.XVID.AC3.HQ.Hive-CM8[/b][/size][/color]


[b]Thx Hive

CM8 Doing It Right The First Time :D


Source: 1080p Web HD-Stream

Encode:
was a lot to fix on that stream, it was rather dark, too much red, strange colouring, framerate wrong,
audio problem at a spot, and that aac audio that likes to get async when converting to avi. 
Well, fixed all that to my HQ-Standards and added sharpness too.
got very nice in the end.
enjoy

btw:
has a great cast of many well known actors

Video: 720x304 @bitrate 2000 2pass
Audio: English AC3 2.0 Stereo
Sample: Yes, included[/b]
 
http://www.imdb.com/title/tt1682246/


General
Complete name                    : Girl.Walks.Into.A.Bar.2011.HDrip.XVID.AC3.HQ.Hive-CM8.avi
Format                           : AVI
Format/Info                      : Audio Video Interleave
File size                        : 1.30 GiB
Duration                         : 1h 19mn
Overall bit rate                 : 2 350 Kbps
Writing application              : Nandub v1.0rc2
Writing library                  : Nandub build 1853/release

Video
ID                               : 0
Format                           : MPEG-4 Visual
Format profile                   : Advanced Simple@L5
Format settings, BVOP            : 2
Format settings, QPel            : Yes
Format settings, GMC             : No warppoints
Format settings, Matrix          : Default (H.263)
Muxing mode                      : Packed bitstream
Codec ID                         : XVID
Codec ID/Hint                    : XviD
Duration                         : 1h 19mn
Bit rate                         : 2 085 Kbps
Width                            : 720 pixels
Height                           : 304 pixels
Display aspect ratio             : 2.35:1
Frame rate                       : 23.976 fps
Color space                      : YUV
Chroma subsampling               : 4:2:0
Bit depth                        : 8 bits
Scan type                        : Progressive
Compression mode                 : Lossy
Bits/(Pixel*Frame)               : 0.397
Stream size                      : 1.15 GiB (89%)
Writing library                  : XviD 1.2.1 (UTC 2008-12-04)

Audio
ID                               : 1
Format                           : AC-3
Format/Info                      : Audio Coding 3
Mode extension                   : CM (complete main)
Codec ID                         : 2000
Duration                         : 1h 19mn
Bit rate mode                    : Constant
Bit rate                         : 256 Kbps
Channel(s)                       : 2 channels
Channel positions                : Front: L R
Sampling rate                    : 48.0 KHz
Bit depth                        : 16 bits
Compression mode                 : Lossy
Stream size                      : 145 MiB (11%)
Alignment                        : Split accross interleaves
Interleave, duration             : 42 ms (1.00 video frame)
Interleave, preload duration     : 500 ms


Plot:
A sharp-witted comedy that follows a group of apparent strangers in interlocking stories
happening in ten different bars during the course of one evening throughout Los Angeles.


Cast:
Carla Gugino        ...    Francine Driver
Gil Bellows         ...    Emmit
Xander Berkeley     ...    Moe
Alexis Bledel       ...    Kim
Emmanuelle Chriqui  ...    Teresa
Rosario Dawson      ...    June
Danny DeVito        ...    Aldo
Robert Forster      ...    Dodge
Josh Hartnett       ...    Sam Salazar
Amber Valletta      ...    Camilla


[img]http://img31.imageshack.us/img31/3134/60280090.png[/img]
[img]http://img197.imageshack.us/img197/5020/gigic.png[/img]
[img]http://img855.imageshack.us/img855/2258/gigiggiiggiiggiigi.png[/img]
[img]http://img809.imageshack.us/img809/8625/gigiggiigi.png[/img]
[img]http://img199.imageshack.us/img199/16/gigigi.png[/img]
[img]http://img830.imageshack.us/img830/2854/gigigigi.png[/img]
[img]http://img543.imageshack.us/img543/7448/gigiggiigiggiigi.png[/img]
[img]http://img443.imageshack.us/img443/1264/gigigiggiiggiiggiigilp.png[/img]
[img]http://img809.imageshack.us/img809/5492/gigigiggiigi.png[/img]
[img]http://img267.imageshack.us/img267/9634/gigigigiggiiggiiggiigi.png[/img]
[img]http://img829.imageshack.us/img829/7341/gigigigiggiigi.png[/img]



Greetz

ViSiON,SiC,SANTi,3LT0N,YanKeeS,MAGNET,THC,T0XiC,LKRG,FANTASIA-PLAY,FANTASIA-M,BHRG,FLAWL3SS,
D2U,WBZ,NOVA,Vik,Rapeseed,SAFC,goldadvance,MEMORY100,scumbag,KaN1vE,Unevano,Pinnz,Wayne
Mr Hive,cedrict wink,and all P2P groups
Great Work Guys :D

LOOKING FOR ANYTHING YOU WANT TO LOOK AND SOUND BETTER

CM8@hushmail.com